# xmcd CD database file
#
# Track frame offsets:
#	183
#	13438
#	30963
#	44425
#	56503
#	67333
#	86205
#	99558
#	112463
#	127620
#	140183
#
# Disc length: 2295 seconds
#
# Revision: 2
# Processed by: cddbd v1.5.2PL0 Copyright (c) Steve Scherf et al.
# Submitted via: CDex 1.70beta2
#
DISCID=a508f50b
DTITLE=Statler Brothers, The - Christmas Card
DYEAR=1978
DGENRE=Christmas
TTITLE0=I Believe In Santa's Cause
TTITLE1=I'll Be Home For Christmas
TTITLE2=Jingle Bells
TTITLE3=I Never Spend A Christmas That I Don't Think Of You
TTITLE4=White Christmas
TTITLE5=Christmas To Me
TTITLE6=Who Do You Think?
TTITLE7=Away In A Manger
TTITLE8=Something You Can't Buy
TTITLE9=The Carols Those Kids Used To Sing
TTITLE10=A Christmas Medley: Silent Night - O Holy Night - First Noel, The - It Came Upon The Midnight Clear - Silent Night
EXTD=YEAR: 1978
EXTT0=
EXTT1=
EXTT2=
EXTT3=
EXTT4=
EXTT5=
EXTT6=
EXTT7=
EXTT8=
EXTT9=
EXTT10=
PLAYORDER=
